<?xml version="1.0" encoding="UTF-8"?>
<svg width="127px" height="127px" viewBox="0 0 127 127" version="1.1" xmlns="http://www.w3.org/2000/svg" xmlns:xlink="http://www.w3.org/1999/xlink">
    <!-- Generator: Sketch 47.1 (45422) - http://www.bohemiancoding.com/sketch -->
    <title>Icon - Check</title>
    <desc>Created with Sketch.</desc>
    <defs>
        <polygon id="path-1" points="47.8225 0.932 0 0.932 0 48.7528 47.8225 48.7528 47.8225 0.932"></polygon>
    </defs>
    <g id="Page-1" stroke="none" stroke-width="1" fill="none" fill-rule="evenodd">
        <g id="Homepage---New" transform="translate(-657.000000, -2577.000000)">
            <g id="Section---Callouts" transform="translate(0.000000, 2478.000000)">
                <g id="Content---Simplifying-Processes" transform="translate(555.000000, 100.000000)">
                    <g id="Icon---Check" transform="translate(103.000000, 0.000000)">
                        <circle id="Oval-4" stroke="#EDF1F2" stroke-width="2" fill="#FFFFFF" cx="62.5" cy="62.5" r="62.5"></circle>
                        <g transform="translate(34.000000, 34.000000)">
                            <path d="M38.9702,20.3174 C38.1052,19.6284 36.8462,19.7714 36.1592,20.6364 L25.4612,34.0794 L19.9042,27.3004 C19.2022,26.4464 17.9432,26.3214 17.0892,27.0224 C16.2352,27.7224 16.1102,28.9824 16.8102,29.8374 L23.7392,38.2894 C24.1352,38.7724 24.7082,39.0214 25.2872,39.0214 C25.7332,39.0214 26.1822,38.8734 26.5542,38.5684 C26.5642,38.5604 26.5702,38.5504 26.5802,38.5424 C26.9432,38.4264 27.2812,38.2164 27.5372,37.8954 L39.2892,23.1284 C39.9772,22.2634 39.8342,21.0054 38.9702,20.3174" id="Fill-1" fill="#00C9FF"></path>
                            <path d="M47.8853,9.3111 C47.8653,9.2911 47.8423,9.2781 47.8223,9.2591 C48.5453,10.0441 48.5323,11.2631 47.7703,12.0241 C47.0103,12.7861 45.7893,12.7991 45.0053,12.0761 C45.0243,12.0961 45.0373,12.1191 45.0573,12.1391 C54.4083,21.4901 54.4083,36.7061 45.0573,46.0571 C35.7053,55.4081 20.4893,55.4071 11.1383,46.0571 C11.1193,46.0381 11.0973,46.0251 11.0773,46.0071 C11.7993,46.7911 11.7853,48.0101 11.0243,48.7701 C10.6343,49.1611 10.1223,49.3561 9.6103,49.3561 C9.1243,49.3561 8.6403,49.1741 8.2583,48.8211 C8.2773,48.8421 8.2903,48.8651 8.3103,48.8851 C13.7653,54.3411 20.9313,57.0681 28.0973,57.0681 C35.2633,57.0681 42.4303,54.3411 47.8853,48.8851 C53.1713,43.6001 56.0813,36.5731 56.0813,29.0981 C56.0813,21.6241 53.1713,14.5961 47.8853,9.3111" id="Fill-3" fill="#00C9FF"></path>
                            <g id="Group-7" transform="translate(0.000000, 0.068400)">
                                <mask id="mask-2" fill="white">
                                    <use xlink:href="#path-1"></use>
                                </mask>
                                <g id="Clip-6"></g>
                                <path d="M8.3105,45.9888 C9.0715,45.2268 10.2925,45.2138 11.0775,45.9388 C11.0575,45.9178 11.0445,45.8938 11.0245,45.8738 C6.4945,41.3438 3.9995,35.3218 3.9995,28.9148 C3.9995,22.5098 6.4945,16.4868 11.0245,11.9558 C20.3755,2.6058 35.5905,2.6058 44.9425,11.9558 C44.9615,11.9758 44.9855,11.9888 45.0055,12.0078 C44.2825,11.2238 44.2955,10.0038 45.0575,9.2428 C45.8175,8.4808 47.0385,8.4678 47.8225,9.1908 C47.8035,9.1708 47.7905,9.1478 47.7705,9.1278 C42.4855,3.8428 35.4575,0.9318 27.9835,0.9318 C20.5085,0.9318 13.4815,3.8428 8.1965,9.1278 C2.9105,14.4128 -0.0005,21.4408 -0.0005,28.9148 C-0.0005,36.3898 2.9105,43.4168 8.1965,48.7018 C8.2155,48.7218 8.2385,48.7338 8.2575,48.7528 C7.5355,47.9678 7.5495,46.7498 8.3105,45.9888" id="Fill-5" fill="#FF4F00" mask="url(#mask-2)"></path>
                            </g>
                            <path d="M11.0244,48.7705 C11.7854,48.0095 11.7994,46.7915 11.0774,46.0065 C10.2924,45.2825 9.0714,45.2955 8.3104,46.0575 C7.5494,46.8175 7.5354,48.0365 8.2584,48.8205 C8.6404,49.1745 9.1234,49.3565 9.6104,49.3565 C10.1224,49.3565 10.6344,49.1615 11.0244,48.7705" id="Fill-8" fill="#003A00"></path>
                            <path d="M45.0571,9.3111 C44.2951,10.0721 44.2821,11.2921 45.0051,12.0761 C45.7891,12.7991 47.0101,12.7861 47.7701,12.0241 C48.5321,11.2631 48.5451,10.0441 47.8221,9.2591 C47.0381,8.5361 45.8181,8.5491 45.0571,9.3111" id="Fill-10" fill="#003A00"></path>
                        </g>
                    </g>
                </g>
            </g>
        </g>
    </g>
</svg>