<?xml version="1.0" encoding="UTF-8"?>
<svg width="140px" height="26px" viewBox="0 0 140 26" version="1.1" xmlns="http://www.w3.org/2000/svg" xmlns:xlink="http://www.w3.org/1999/xlink">
    <!-- Generator: Sketch 47.1 (45422) - http://www.bohemiancoding.com/sketch -->
    <title>Logo - GoodCall</title>
    <desc>Created with Sketch.</desc>
    <defs></defs>
    <g id="Page-1" stroke="none" stroke-width="1" fill="none" fill-rule="evenodd">
        <g id="Homepage---New" transform="translate(-81.000000, -44.000000)">
            <g id="Header" transform="translate(81.000000, 40.000000)">
                <g id="Header-Bar">
                    <g id="Logo---GoodCall" transform="translate(0.000000, 4.000000)">
                        <path d="M18.1744057,25.0556822 C16.6630849,25.429632 15.0167642,25.6170368 13.2341698,25.6170368 C11.3861981,25.6170368 9.68511321,25.3195962 8.13091509,24.7251449 C6.57671698,24.1311234 5.23945283,23.2946793 4.12039623,22.2162423 C3.00006604,21.1382351 2.12553774,19.8448844 1.49511321,18.33662 C0.864264151,16.8292152 0.549264151,15.1507392 0.549264151,13.3016216 C0.549264151,11.4314425 0.869783019,9.73620319 1.51166981,8.2171931 C2.15228302,6.69861283 3.03869811,5.40569196 4.16921698,4.33800065 C5.29931132,3.27073917 6.62553774,2.45105829 8.1474717,1.87852817 C9.6685566,1.30642787 11.3106321,1.02016281 13.0711509,1.02016281 C14.8974717,1.02016281 16.5930377,1.30041029 18.1582736,1.8617649 C19.7235094,2.42311951 20.9953962,3.17746662 21.9735094,4.12351677 L18.4516226,8.18452621 C17.9082264,7.5462325 17.1907736,7.02399218 16.2992642,6.61651579 C15.4077547,6.2090394 14.3969528,6.00573103 13.2668585,6.00573103 C12.2887453,6.00573103 11.3861981,6.1871182 10.5604906,6.54989254 C9.73393396,6.91352654 9.01648113,7.41986324 8.40813208,8.06847281 C7.79935849,8.71837187 7.32643396,9.4886226 6.98978302,10.3796548 C6.65228302,11.2715467 6.48416981,12.2451058 6.48416981,13.3016216 C6.48416981,14.3804884 6.63615094,15.3712406 6.94096226,16.2730186 C7.24492453,17.176086 7.69577358,17.9523543 8.29393396,18.6009639 C8.89166981,19.2504331 9.63077358,19.7567698 10.5116698,20.1199739 C11.391717,20.4827483 12.397,20.6645653 13.5279434,20.6645653 C14.1800189,20.6645653 14.7994057,20.6151351 15.3865283,20.515845 C15.9732264,20.4169847 16.5166226,20.2575187 17.016717,20.0370173 L17.016717,15.7782872 L12.614783,15.7782872 L12.614783,11.2216867 L22.1365283,11.2216867 L22.1365283,23.6028655 C21.0055849,24.1973168 19.6853019,24.6817323 18.1744057,25.0556822 L18.1744057,25.0556822 Z" id="Fill-1" fill="#221E1F"></path>
                        <path d="M35.5106981,16.7357708 C35.5106981,16.2075129 35.4236698,15.6904305 35.2500377,15.1840938 C35.0755566,14.6777571 34.825934,14.2320261 34.4998962,13.8464709 C34.1738585,13.4617753 33.7714057,13.1480013 33.2933868,12.9055786 C32.8149434,12.6635858 32.2605094,12.5423745 31.6305094,12.5423745 C30.9996604,12.5423745 30.4452264,12.6635858 29.9672075,12.9055786 C29.4887642,13.1480013 29.0918302,13.4617753 28.7772547,13.8464709 C28.4618302,14.2320261 28.2228208,14.6777571 28.0598019,15.1840938 C27.896783,15.6904305 27.8152736,16.2075129 27.8152736,16.7357708 C27.8152736,17.2640287 27.896783,17.7815409 28.0598019,18.2870179 C28.2228208,18.7937844 28.4673491,19.250691 28.7933868,19.6577375 C29.1194245,20.0647841 29.5214528,20.3897336 29.9998962,20.6312966 C30.4779151,20.8741491 31.0323491,20.9945008 31.6631981,20.9945008 C32.2931981,20.9945008 32.8476321,20.8741491 33.3260755,20.6312966 C33.8036698,20.3897336 34.2065472,20.0647841 34.5325849,19.6577375 C34.8586226,19.250691 35.1031509,18.7937844 35.2661698,18.2870179 C35.4291887,17.7815409 35.5106981,17.2640287 35.5106981,16.7357708 M40.6631981,16.7357708 C40.6631981,18.0785516 40.4233396,19.2941035 39.9453208,20.3837161 C39.4668774,21.4733286 38.8148019,22.3978873 37.9890943,23.1569626 C37.1625377,23.9164676 36.2065,24.505761 35.1197075,24.9235532 C34.032066,25.3413455 32.869283,25.5506714 31.6305094,25.5506714 C30.4125377,25.5506714 29.2552736,25.3413455 28.1574434,24.9235532 C27.0596132,24.505761 26.1031509,23.9164676 25.2880566,23.1569626 C24.4729623,22.3978873 23.8255566,21.4733286 23.3479623,20.3837161 C22.8695189,19.2941035 22.6305094,18.0785516 22.6305094,16.7357708 C22.6305094,15.3934197 22.8695189,14.1825959 23.3479623,13.1037291 C23.8255566,12.0257219 24.4729623,11.1119088 25.2880566,10.3635793 C26.1031509,9.61567958 27.0596132,9.04314946 28.1574434,8.64684858 C29.2552736,8.2505477 30.4125377,8.05239726 31.6305094,8.05239726 C32.869283,8.05239726 34.032066,8.2505477 35.1197075,8.64684858 C36.2065,9.04314946 37.1625377,9.61567958 37.9890943,10.3635793 C38.8148019,11.1119088 39.4668774,12.0257219 39.9453208,13.1037291 C40.4233396,14.1825959 40.6631981,15.3934197 40.6631981,16.7357708" id="Fill-3" fill="#221E1F"></path>
                        <path d="M54.1625613,16.7357708 C54.1625613,16.2075129 54.075533,15.6904305 53.9019009,15.1840938 C53.7278443,14.6777571 53.4777972,14.2320261 53.1517594,13.8464709 C52.8257217,13.4617753 52.4228443,13.1480013 51.94525,12.9055786 C51.4668066,12.6635858 50.9127972,12.5423745 50.2819481,12.5423745 C49.6515236,12.5423745 49.0970896,12.6635858 48.6190708,12.9055786 C48.1406274,13.1480013 47.7441179,13.4617753 47.4291179,13.8464709 C47.1136934,14.2320261 46.874684,14.6777571 46.7116651,15.1840938 C46.5482217,15.6904305 46.4671368,16.2075129 46.4671368,16.7357708 C46.4671368,17.2640287 46.5482217,17.7815409 46.7116651,18.2870179 C46.874684,18.7937844 47.1192123,19.250691 47.44525,19.6577375 C47.7712877,20.0647841 48.1737406,20.3897336 48.652184,20.6312966 C49.1297783,20.8741491 49.6837877,20.9945008 50.3150613,20.9945008 C50.9450613,20.9945008 51.4994953,20.8741491 51.9779387,20.6312966 C52.455533,20.3897336 52.8584104,20.0647841 53.1844481,19.6577375 C53.5104858,19.250691 53.7550142,18.7937844 53.918033,18.2870179 C54.0814764,17.7815409 54.1625613,17.2640287 54.1625613,16.7357708 M59.3150613,16.7357708 C59.3150613,18.0785516 59.0752028,19.2941035 58.597184,20.3837161 C58.1187406,21.4733286 57.4666651,22.3978873 56.6409575,23.1569626 C55.8148255,23.9164676 54.8583632,24.505761 53.7711462,24.9235532 C52.6843538,25.3413455 51.5211462,25.5506714 50.2819481,25.5506714 C49.0644009,25.5506714 47.9071368,25.3413455 46.8097311,24.9235532 C45.7114764,24.505761 44.7550142,23.9164676 43.9399198,23.1569626 C43.1248255,22.3978873 42.4778443,21.4733286 41.9998255,20.3837161 C41.5213821,19.2941035 41.2823726,18.0785516 41.2823726,16.7357708 C41.2823726,15.3934197 41.5213821,14.1825959 41.9998255,13.1037291 C42.4778443,12.0257219 43.1248255,11.1119088 43.9399198,10.3635793 C44.7550142,9.61567958 45.7114764,9.04314946 46.8097311,8.64684858 C47.9071368,8.2505477 49.0644009,8.05239726 50.2819481,8.05239726 C51.5211462,8.05239726 52.6843538,8.2505477 53.7711462,8.64684858 C54.8583632,9.04314946 55.8148255,9.61567958 56.6409575,10.3635793 C57.4666651,11.1119088 58.1187406,12.0257219 58.597184,13.1037291 C59.0752028,14.1825959 59.3150613,15.3934197 59.3150613,16.7357708" id="Fill-5" fill="#221E1F"></path>
                        <path d="M72.846816,16.7685236 C72.846816,16.2402657 72.7538443,15.7231833 72.5695991,15.2168466 C72.3845047,14.7109398 72.1238443,14.2591911 71.7871934,13.8628903 C71.4496934,13.4670192 71.0421462,13.1480873 70.5641274,12.9056646 C70.085684,12.6636718 69.5422877,12.5424604 68.9335142,12.5424604 C68.3030896,12.5424604 67.7486557,12.6636718 67.2706368,12.9056646 C66.7921934,13.1480873 66.3901651,13.4618613 66.0641274,13.8465568 C65.7380896,14.232112 65.4935613,14.677843 65.3305425,15.1837499 C65.1675236,15.6905164 65.0860142,16.207169 65.0860142,16.7358567 C65.0860142,17.2636848 65.1675236,17.7867848 65.3305425,18.3038671 C65.4935613,18.8209495 65.7380896,19.2778561 66.0641274,19.674157 C66.3901651,20.0704578 66.7921934,20.3898196 67.2706368,20.6313826 C67.7486557,20.8742351 68.3030896,20.9945868 68.9335142,20.9945868 C69.5422877,20.9945868 70.085684,20.8742351 70.5641274,20.6313826 C71.0421462,20.3898196 71.4496934,20.0704578 71.7871934,19.674157 C72.1238443,19.2778561 72.3845047,18.8269671 72.5695991,18.3202006 C72.7538443,17.8142937 72.846816,17.2967815 72.846816,16.7685236 L72.846816,16.7685236 Z M73.0425236,25.0224995 L73.0425236,22.8763712 L72.9775708,22.8763712 C72.4554009,23.7132452 71.7103538,24.3571267 70.7437028,24.8080156 C69.7762028,25.2589046 68.7488443,25.484564 67.6620519,25.484564 C66.4440802,25.484564 65.3572877,25.2425711 64.4008255,24.7585855 C63.4443632,24.2745998 62.6343632,23.6307183 61.9716745,22.8269411 C61.3081368,22.0240234 60.8029481,21.0938769 60.455684,20.0369313 C60.1075708,18.9804155 59.9339387,17.8804871 59.9339387,16.7358567 C59.9339387,15.5916561 60.1130896,14.4960261 60.471816,13.4502559 C60.8305425,12.4053455 61.3408255,11.4859446 62.0043632,10.6937727 C62.6670519,9.90117095 63.4719575,9.27362292 64.4178066,8.81155845 C65.3632311,8.34949398 66.4228538,8.11824683 67.5966745,8.11824683 C68.7921462,8.11824683 69.8029481,8.34949398 70.6290802,8.81155845 C71.4556368,9.27362292 72.0966745,9.78038945 72.553467,10.3301387 L72.6184198,10.3301387 L72.6184198,0.0628511885 L77.9666274,0.0628511885 L77.9666274,25.0224995 L73.0425236,25.0224995 Z" id="Fill-7" fill="#221E1F"></path>
                        <path d="M96.4226132,24.6099082 C94.9227547,25.3032198 93.1945,25.6496607 91.2378491,25.6496607 C89.4552547,25.6496607 87.8080849,25.3530798 86.2976132,24.7586285 C84.7862925,24.1641771 83.4770472,23.3221452 82.3686038,22.2329626 C81.2593113,21.14335 80.3894528,19.8388238 79.7594528,18.3202436 C79.1290283,16.8016633 78.8136038,15.1292048 78.8136038,13.3015786 C78.8136038,11.4313995 79.1341226,9.73616021 79.7760094,8.21715011 C80.4170472,6.69856985 81.3030377,5.40564897 82.4335566,4.33795767 C83.5636509,3.27069619 84.8898774,2.4510153 86.4118113,1.87848518 C87.9333208,1.30638489 89.5745472,1.02011983 91.3359151,1.02011983 C92.9656792,1.02011983 94.5691226,1.31197265 96.1453962,1.89481863 C97.7216698,2.47852426 98.9986509,3.33087203 99.9767642,4.45358124 L96.194217,8.28377336 C95.6724717,7.5569352 94.9877075,7.01793162 94.1399245,6.66590296 C93.2921415,6.31387431 92.422283,6.13721524 91.5316226,6.13721524 C90.5530849,6.13721524 89.6564811,6.31903224 88.8413868,6.68223641 C88.0258679,7.04544057 87.3245472,7.54618951 86.7378491,8.18448323 C86.1511509,8.82277695 85.6943585,9.57669424 85.3683208,10.4462351 C85.0418585,11.315776 84.8792642,12.2674139 84.8792642,13.3015786 C84.8792642,14.3580944 85.0418585,15.3269254 85.3683208,16.207212 C85.6943585,17.0879284 86.1452075,17.8418457 86.7212925,18.4689639 C87.2973774,19.0960821 87.9876604,19.5860853 88.7921415,19.938114 C89.5961981,20.2905725 90.4766698,20.4663719 91.4335566,20.4663719 C92.542,20.4663719 93.5095,20.2467301 94.3356321,19.806157 C95.1613396,19.3660137 95.8244528,18.7939134 96.3249717,18.0889964 L100.20516,21.7872315 C99.1828962,22.9752745 97.9224717,23.9165965 96.4226132,24.6099082" id="Fill-9" fill="#059AC0"></path>
                        <path d="M111.292311,17.8581791 L110.607972,17.8581791 C110.020849,17.8581791 109.428208,17.885688 108.830472,17.940706 C108.232311,17.9957239 107.699953,18.1006018 107.232547,18.25448 C106.765142,18.4083582 106.379245,18.6340176 106.075283,18.9310283 C105.770472,19.2284689 105.618915,19.6196119 105.618915,20.1031677 C105.618915,20.411354 105.688962,20.6761276 105.830755,20.8953396 C105.971698,21.1158411 106.151274,21.2916405 106.368632,21.4240274 C106.585566,21.5559844 106.836038,21.6496867 107.118774,21.7042748 C107.40066,21.7597226 107.673208,21.7872315 107.933868,21.7872315 C109.020236,21.7872315 109.851887,21.4850628 110.428396,20.8790062 C111.004057,20.2738092 111.292311,19.4541283 111.292311,18.4195337 L111.292311,17.8581791 Z M101.477217,10.8257727 C102.433679,9.90121394 103.548066,9.20790231 104.819528,8.74583784 C106.091415,8.28377336 107.390472,8.05252621 108.716698,8.05252621 C110.085802,8.05252621 111.243491,8.2231677 112.188915,8.56402084 C113.134764,8.90573364 113.901038,9.43356171 114.48816,10.1487945 C115.074858,10.8644572 115.503632,11.7666649 115.776179,12.8558476 C116.047877,13.9454601 116.183726,15.2388108 116.183726,16.7358997 L116.183726,25.0225425 L111.292311,25.0225425 L111.292311,23.2727151 L111.19467,23.2727151 C110.781604,23.955281 110.156274,24.4835389 109.319953,24.8574888 C108.482783,25.2314386 107.575142,25.4188434 106.596604,25.4188434 C105.944528,25.4188434 105.270377,25.3307288 104.575425,25.1549293 C103.879198,24.9787001 103.243255,24.6920052 102.667594,24.296564 C102.091085,23.9002631 101.618585,23.3715754 101.249245,22.7113605 C100.879481,22.0511456 100.694811,21.2370524 100.694811,20.2682214 C100.694811,19.0797486 101.01533,18.1220931 101.656792,17.3961146 C102.29783,16.6692765 103.123962,16.1083517 104.135189,15.7120508 C105.145566,15.3157499 106.270991,15.0518359 107.509764,14.919449 C108.748962,14.787492 109.955896,14.7212986 111.129292,14.7212986 L111.129292,14.4573846 C111.129292,13.6432914 110.846557,13.0436822 110.281509,12.6576972 C109.716038,12.2734315 109.020236,12.0804389 108.194528,12.0804389 C107.433349,12.0804389 106.699764,12.2450628 105.993774,12.5756001 C105.286934,12.9057076 104.683679,13.3015786 104.184009,13.7640729 L101.477217,10.8257727 Z" id="Fill-11" fill="#059AC0"></path>
                        <polygon id="Fill-13" fill="#059AC0" points="117.618208 25.0224135 123.064057 25.0224135 123.064057 0.0627652231 117.618208 0.0627652231"></polygon>
                        <polygon id="Fill-15" fill="#059AC0" points="124.726509 25.0224135 130.172358 25.0224135 130.172358 0.0627652231 124.726509 0.0627652231"></polygon>
                        <path d="M134.131232,2.95923458 C134.14571,3.15127871 134.205148,3.30714061 134.310307,3.42682029 C134.510718,3.65059344 134.864295,3.76248002 135.370277,3.76248002 C135.596597,3.76248002 135.803104,3.73798744 135.989799,3.68955892 C136.350234,3.59437183 136.530071,3.42348039 136.530071,3.17855454 C136.530071,2.99374686 136.453869,2.86237755 136.301465,2.7844466 C136.146775,2.70762895 135.904453,2.64083099 135.574498,2.58405273 L134.966406,2.48051589 C134.569394,2.41316128 134.28897,2.33857023 134.123612,2.25674273 C133.838616,2.11535372 133.696119,1.90438351 133.696119,1.62383209 C133.696119,1.31990138 133.83633,1.06996569 134.115992,0.875138318 C134.396415,0.680310943 134.793427,0.582340606 135.306267,0.582340606 C135.779481,0.582340606 136.180304,0.6686213 136.511021,0.839512741 C136.840975,1.01096083 137.006334,1.28427581 137.006334,1.66057097 L136.41653,1.66057097 C136.386049,1.47965983 136.32204,1.34049742 136.223739,1.24364038 C136.040092,1.06718245 135.728426,0.978675152 135.289503,0.978675152 C134.935163,0.978675152 134.679887,1.03601007 134.525196,1.14900994 C134.369744,1.26312312 134.292018,1.39449244 134.292018,1.54534449 C134.292018,1.71122608 134.383461,1.83257571 134.567108,1.90883671 C134.686745,1.95837853 134.958786,2.02016664 135.382469,2.09308774 L136.011898,2.20163442 C136.315182,2.25340284 136.549122,2.32521064 136.71448,2.41538788 C136.999476,2.57403303 137.141973,2.80337268 137.141973,3.10452014 C137.141973,3.47914535 136.95985,3.74689383 136.595605,3.90776558 C136.232121,4.06919397 135.809962,4.14990817 135.327604,4.14990817 C134.765995,4.14990817 134.326309,4.04247479 134.009309,3.82760803 C133.690785,3.61441122 133.535332,3.32439675 133.542191,2.95923458 L134.131232,2.95923458 Z" id="Fill-18" fill="#231F20"></path>
                        <path d="M136.103995,0.648448063 L136.832265,0.648448063 L137.910476,3.66476568 L138.98128,0.648448063 L139.703995,0.648448063 L139.703995,4.21601563 L139.218893,4.21601563 L139.218893,2.11022908 C139.218893,2.03743356 139.220745,1.91708613 139.223831,1.74859972 C139.227534,1.58011331 139.228768,1.39988569 139.228768,1.20674274 L138.158581,4.21601563 L137.654964,4.21601563 L136.573668,1.20674274 L136.573668,1.31652308 C136.573668,1.40399512 136.576754,1.53725789 136.581691,1.71572432 C136.586629,1.89477782 136.589097,2.02627941 136.589097,2.11022908 L136.589097,4.21601563 L136.103995,4.21601563 L136.103995,0.648448063 Z" id="Fill-19" fill="#231F20"></path>
                    </g>
                </g>
            </g>
        </g>
    </g>
</svg>