<?xml version="1.0" encoding="UTF-8"?>
<svg width="127px" height="127px" viewBox="0 0 127 127" version="1.1" xmlns="http://www.w3.org/2000/svg" xmlns:xlink="http://www.w3.org/1999/xlink">
    <!-- Generator: Sketch 47.1 (45422) - http://www.bohemiancoding.com/sketch -->
    <title>Icon - Hat &amp; Diploma</title>
    <desc>Created with Sketch.</desc>
    <defs>
        <polygon id="path-1" points="57.226 19.2966 57.226 0.23 0.3604 0.23 0.3604 19.2966 57.226 19.2966"></polygon>
        <polygon id="path-3" points="0.8794 1 1.8794 1 1.8794 0.987 0.8794 0.987 0.8794 1"></polygon>
        <polygon id="path-5" points="0.1574 1 1.1574 1 1.1574 0.8483 0.1574 0.8483 0.1574 1"></polygon>
        <polygon id="path-7" points="0.6142 1 1.6142 1 1.6142 0.987 0.6142 0.987 0.6142 1"></polygon>
    </defs>
    <g id="Page-1" stroke="none" stroke-width="1" fill="none" fill-rule="evenodd">
        <g id="Homepage---New" transform="translate(-1062.000000, -2577.000000)">
            <g id="Section---Callouts" transform="translate(0.000000, 2478.000000)">
                <g id="Content---Improving-Lives" transform="translate(960.000000, 100.000000)">
                    <g id="Icon---Hat-&amp;-Diploma" transform="translate(103.000000, 0.000000)">
                        <circle id="Oval-4" stroke="#EDF1F2" stroke-width="2" fill="#FFFFFF" cx="62.5" cy="62.5" r="62.5"></circle>
                        <g transform="translate(31.000000, 33.000000)">
                            <path d="M3.3727,9.1355 C3.1897,9.3815 3.0767,9.6805 3.0717,10.0035 C3.0657,10.3395 3.1727,10.6565 3.3607,10.9135 L3.3607,9.2575 C3.3607,9.2155 3.3697,9.1765 3.3727,9.1355" id="Fill-1" fill="#00C9FF"></path>
                            <g id="Group-5" transform="translate(6.000000, 0.770400)">
                                <mask id="mask-2" fill="white">
                                    <use xlink:href="#path-1"></use>
                                </mask>
                                <g id="Clip-4"></g>
                                <path d="M56.1084,7.8076 L27.5644,0.2796 C27.3144,0.2126 27.0504,0.2136 26.8004,0.2786 L1.3054,6.9876 L13.0954,6.9876 L27.1814,3.2806 L50.1854,9.3476 L27.1484,16.2316 L6.2514,9.9876 L0.3604,9.9876 L0.3604,11.3576 L6.5454,13.2056 C6.7594,12.6396 7.3024,12.2356 7.9444,12.2356 C8.7734,12.2356 9.4444,12.9066 9.4444,13.7356 L9.4444,14.0726 L26.7184,19.2336 C26.8584,19.2756 27.0044,19.2966 27.1484,19.2966 C27.2934,19.2966 27.4384,19.2756 27.5784,19.2336 L44.8534,14.0716 L44.8534,13.7356 C44.8534,12.9066 45.5244,12.2356 46.3534,12.2356 C46.9944,12.2356 47.5374,12.6396 47.7524,13.2056 L56.1554,10.6946 C56.7994,10.5026 57.2364,9.9056 57.2264,9.2336 C57.2144,8.5616 56.7584,7.9786 56.1084,7.8076" id="Fill-3" fill="#00C9FF" mask="url(#mask-2)"></path>
                            </g>
                            <path d="M4.1895,8.5775 L7.3055,7.7575 L4.8605,7.7575 C4.0735,7.7575 3.4355,8.3645 3.3725,9.1355 C3.5705,8.8695 3.8515,8.6665 4.1895,8.5775" id="Fill-6" fill="#FF4F00"></path>
                            <path d="M12.2518,10.7577 L32.3608,10.7577 C33.1888,10.7577 33.8608,10.0867 33.8608,9.2577 C33.8608,8.4287 33.1888,7.7577 32.3608,7.7577 L19.0958,7.7577 L10.1178,10.1197 L12.2518,10.7577 Z" id="Fill-8" fill="#FF4F00"></path>
                            <path d="M3.3604,10.9132 L3.3604,26.8922 C3.8514,26.7262 4.3684,26.6162 4.9154,26.6162 C5.4214,26.6162 5.9004,26.7152 6.3604,26.8582 L6.3604,12.1282 L4.1414,11.4652 C3.8194,11.3692 3.5484,11.1712 3.3604,10.9132" id="Fill-10" fill="#FF4F00"></path>
                            <path d="M12.2518,10.7577 L10.1178,10.1197 L19.0958,7.7577 L7.3048,7.7577 L4.1898,8.5777 C3.8518,8.6667 3.5708,8.8697 3.3728,9.1357 C3.3698,9.1767 3.3608,9.2157 3.3608,9.2577 L3.3608,10.9127 C3.5488,11.1707 3.8188,11.3687 4.1418,11.4657 L6.3608,12.1277 L6.3608,10.7577 L12.2518,10.7577 Z" id="Fill-12" fill="#003800"></path>
                            <path d="M4.915,33.4452 C3.859,33.4452 3,32.5862 3,31.5302 C3,30.4752 3.859,29.6162 4.915,29.6162 C5.971,29.6162 6.83,30.4752 6.83,31.5302 C6.83,32.5862 5.971,33.4452 4.915,33.4452 M4.86,29.2582 C4.032,29.2582 3.36,28.5862 3.36,27.7582 L3.36,26.8922 C1.415,27.5472 0,29.3672 0,31.5302 C0,34.2402 2.205,36.4452 4.915,36.4452 C7.625,36.4452 9.83,34.2402 9.83,31.5302 C9.83,29.3272 8.362,27.4792 6.36,26.8582 L6.36,27.7582 C6.36,28.5862 5.689,29.2582 4.86,29.2582" id="Fill-14" fill="#FF4F00"></path>
                            <path d="M3.3604,26.892 L3.3604,27.758 C3.3604,28.586 4.0314,29.258 4.8604,29.258 C5.6894,29.258 6.3604,28.586 6.3604,27.758 L6.3604,26.858 C5.9004,26.715 5.4214,26.616 4.9154,26.616 C4.3684,26.616 3.8514,26.727 3.3604,26.892" id="Fill-16" fill="#FF4F00"></path>
                            <path d="M4.6792,49.1723 C4.6792,45.0793 6.2482,42.5733 7.1022,42.5733 C7.9562,42.5733 9.5242,45.0793 9.5242,49.1723 C9.5242,53.2653 7.9562,55.7703 7.1022,55.7703 C6.2482,55.7703 4.6792,53.2653 4.6792,49.1723 M6.8602,57.2573 C6.8602,56.4293 7.5322,55.7573 8.3602,55.7573 L11.1082,55.7573 C11.9932,54.0633 12.5242,51.7733 12.5242,49.1723 C12.5242,46.6573 12.0282,44.4343 11.1962,42.7573 L9.3602,42.7573 C8.5322,42.7573 7.8602,42.0863 7.8602,41.2573 C7.8602,40.6893 8.1802,40.2003 8.6472,39.9453 C8.1602,39.7073 7.6442,39.5733 7.1022,39.5733 C4.0112,39.5733 1.6792,43.7003 1.6792,49.1723 C1.6792,54.6443 4.0112,58.7703 7.1022,58.7703 C7.3672,58.7703 7.6232,58.7293 7.8762,58.6713 C7.2862,58.4683 6.8602,57.9163 6.8602,57.2573" id="Fill-18" fill="#00C9FF"></path>
                            <g id="Group-22" transform="translate(56.000000, 57.770400)">
                                <mask id="mask-4" fill="white">
                                    <use xlink:href="#path-3"></use>
                                </mask>
                                <g id="Clip-21"></g>
                                <path d="M1.0054,1 C1.0564,1 1.1064,0.99 1.1574,0.987 L0.8794,0.987 C0.9214,0.991 0.9624,1 1.0054,1" id="Fill-20" fill="#00C9FF" mask="url(#mask-4)"></path>
                            </g>
                            <path d="M59.8604,41.2577 C59.8604,42.0867 59.1894,42.7577 58.3604,42.7577 L57.4464,42.7577 C58.3094,43.3957 59.4284,45.7137 59.4284,49.1727 C59.4284,53.1537 57.9454,55.6257 57.0784,55.7577 L57.3604,55.7577 C58.1894,55.7577 58.8604,56.4287 58.8604,57.2577 C58.8604,57.8637 58.4994,58.3817 57.9834,58.6187 C60.5744,57.8487 62.4284,54.0487 62.4284,49.1727 C62.4284,45.5427 61.3994,42.5147 59.8064,40.8807 C59.8384,41.0017 59.8604,41.1267 59.8604,41.2577" id="Fill-23" fill="#00C9FF"></path>
                            <path d="M57.0054,39.5736 C56.7484,39.5736 56.5104,39.6436 56.2994,39.7576 L58.1104,39.7576 C57.7554,39.6376 57.3864,39.5736 57.0054,39.5736" id="Fill-25" fill="#00C9FF"></path>
                            <path d="M11.1958,42.7577 L31.9058,42.7577 C31.5048,42.4887 31.2398,42.0307 31.2398,41.5117 C31.2398,40.6827 31.9118,40.0117 32.7398,40.0117 C34.3398,40.0117 35.7138,41.0377 36.6788,42.7577 L57.4468,42.7577 C57.2888,42.6407 57.1378,42.5737 57.0058,42.5737 C56.1768,42.5737 55.5058,41.9027 55.5058,41.0737 C55.5058,40.5017 55.8288,40.0107 56.2998,39.7577 L9.3608,39.7577 C9.1008,39.7577 8.8598,39.8297 8.6468,39.9457 C9.6608,40.4427 10.5348,41.4257 11.1958,42.7577" id="Fill-27" fill="#00C9FF"></path>
                            <path d="M59.8067,40.8806 C59.6387,40.2356 59.0577,39.7576 58.3607,39.7576 L58.1107,39.7576 C58.7257,39.9656 59.2937,40.3546 59.8067,40.8806" id="Fill-29" fill="#00C9FF"></path>
                            <path d="M7.8604,41.2577 C7.8604,42.0867 8.5314,42.7577 9.3604,42.7577 L11.1954,42.7577 C10.5344,41.4257 9.6614,40.4427 8.6474,39.9457 C8.1804,40.1997 7.8604,40.6887 7.8604,41.2577" id="Fill-31" fill="#00C9FF"></path>
                            <path d="M55.5054,41.0736 C55.5054,41.9026 56.1764,42.5736 57.0054,42.5736 C57.1374,42.5736 57.2884,42.6406 57.4464,42.7576 L58.3604,42.7576 C59.1894,42.7576 59.8604,42.0866 59.8604,41.2576 C59.8604,41.1266 59.8384,41.0016 59.8064,40.8806 C59.2944,40.3546 58.7254,39.9656 58.1104,39.7576 L56.2994,39.7576 C55.8284,40.0106 55.5054,40.5016 55.5054,41.0736" id="Fill-33" fill="#00C9FF"></path>
                            <path d="M55.5054,57.2704 C55.5054,56.4414 56.1764,55.7704 57.0054,55.7704 C57.0284,55.7704 57.0544,55.7614 57.0784,55.7574 L36.8184,55.7574 C35.8794,57.5754 34.5104,58.6874 32.9014,58.7574 L56.8794,58.7574 C56.1104,58.6924 55.5054,58.0554 55.5054,57.2704" id="Fill-35" fill="#00C9FF"></path>
                            <g id="Group-39" transform="translate(57.000000, 57.770400)">
                                <mask id="mask-6" fill="white">
                                    <use xlink:href="#path-5"></use>
                                </mask>
                                <g id="Clip-38"></g>
                                <path d="M0.3604,0.9873 C0.5834,0.9873 0.7924,0.9353 0.9834,0.8483 C0.7154,0.9283 0.4394,0.9743 0.1574,0.9873 L0.3604,0.9873 Z" id="Fill-37" fill="#00C9FF" mask="url(#mask-6)"></path>
                            </g>
                            <path d="M31.2402,57.2704 C31.2402,56.4414 31.9112,55.7704 32.7402,55.7704 C32.7532,55.7704 32.7702,55.7584 32.7832,55.7574 L11.1082,55.7574 C10.2912,57.3224 9.1712,58.3694 7.8762,58.6704 C8.0292,58.7234 8.1902,58.7574 8.3602,58.7574 L32.6142,58.7574 C31.8452,58.6924 31.2402,58.0554 31.2402,57.2704" id="Fill-40" fill="#00C9FF"></path>
                            <path d="M11.1082,55.7577 L8.3602,55.7577 C7.5322,55.7577 6.8602,56.4287 6.8602,57.2577 C6.8602,57.9157 7.2862,58.4687 7.8762,58.6707 C9.1712,58.3697 10.2912,57.3217 11.1082,55.7577" id="Fill-42" fill="#00C9FF"></path>
                            <path d="M58.8604,57.2577 C58.8604,56.4287 58.1894,55.7577 57.3604,55.7577 L57.0784,55.7577 C57.0544,55.7617 57.0284,55.7707 57.0054,55.7707 C56.1764,55.7707 55.5054,56.4417 55.5054,57.2707 C55.5054,58.0557 56.1104,58.6927 56.8794,58.7577 L57.1574,58.7577 C57.4394,58.7447 57.7154,58.6987 57.9834,58.6187 C58.4994,58.3817 58.8604,57.8637 58.8604,57.2577" id="Fill-44" fill="#00C9FF"></path>
                            <path d="M36.6792,42.7577 L31.9052,42.7577 C32.1442,42.9177 32.4312,43.0117 32.7402,43.0117 C33.5862,43.0117 35.1632,45.2027 35.1632,49.3907 C35.1632,53.5147 33.6372,55.6907 32.7832,55.7577 L36.8182,55.7577 C37.6642,54.1207 38.1632,51.9217 38.1632,49.3907 C38.1632,46.7227 37.6112,44.4167 36.6792,42.7577" id="Fill-46" fill="#FF4F00"></path>
                            <g id="Group-50" transform="translate(32.000000, 57.770400)">
                                <mask id="mask-8" fill="white">
                                    <use xlink:href="#path-7"></use>
                                </mask>
                                <g id="Clip-49"></g>
                                <path d="M0.7402,1 C0.7952,1 0.8472,0.99 0.9012,0.987 L0.6142,0.987 C0.6562,0.991 0.6972,1 0.7402,1" id="Fill-48" fill="#FF4F00" mask="url(#mask-8)"></path>
                            </g>
                            <path d="M32.7402,40.0116 C31.9112,40.0116 31.2402,40.6826 31.2402,41.5116 C31.2402,42.0316 31.5042,42.4886 31.9052,42.7576 L36.6792,42.7576 C35.7132,41.0376 34.3392,40.0116 32.7402,40.0116" id="Fill-51" fill="#003800"></path>
                            <path d="M36.8184,55.7577 L32.7834,55.7577 C32.7694,55.7587 32.7534,55.7707 32.7404,55.7707 C31.9114,55.7707 31.2404,56.4417 31.2404,57.2707 C31.2404,58.0557 31.8454,58.6927 32.6144,58.7577 L32.9014,58.7577 C34.5104,58.6877 35.8794,57.5747 36.8184,55.7577" id="Fill-53" fill="#003800"></path>
                            <path d="M13.9443,23.8646 C14.7043,23.8646 15.3243,24.4306 15.4243,25.1636 C15.4333,25.0966 15.4443,25.0306 15.4443,24.9616 L15.4443,14.8426 L12.5453,13.9766 C12.4823,14.1416 12.4443,14.3186 12.4443,14.5056 L12.4443,24.9616 C12.4443,25.0306 12.4553,25.0966 12.4643,25.1636 C12.5643,24.4306 13.1843,23.8646 13.9443,23.8646" id="Fill-55" fill="#00C9FF"></path>
                            <path d="M15.4443,14.5058 C15.4443,13.6768 14.7733,13.0058 13.9443,13.0058 C13.3033,13.0058 12.7593,13.4098 12.5453,13.9768 L15.4443,14.8428 L15.4443,14.5058 Z" id="Fill-57" fill="#00C9FF"></path>
                            <path d="M50.853,24.9618 C50.853,25.0308 50.864,25.0968 50.873,25.1628 C50.973,24.4308 51.593,23.8648 52.353,23.8648 C53.113,23.8648 53.733,24.4308 53.833,25.1628 C53.842,25.0968 53.853,25.0308 53.853,24.9618 L53.853,14.5058 C53.853,14.3188 53.815,14.1418 53.752,13.9758 L50.853,14.8428 L50.853,24.9618 Z" id="Fill-59" fill="#00C9FF"></path>
                            <path d="M52.353,13.0058 C51.524,13.0058 50.853,13.6768 50.853,14.5058 L50.853,14.8428 L53.752,13.9758 C53.537,13.4098 52.994,13.0058 52.353,13.0058" id="Fill-61" fill="#00C9FF"></path>
                            <path d="M52.353,26.4618 C51.593,26.4618 50.973,25.8958 50.873,25.1628 C50.864,25.2298 50.853,25.2958 50.853,25.3648 C50.853,26.9298 44.604,29.9748 33.148,29.9748 C21.693,29.9748 15.444,26.9298 15.444,25.3648 C15.444,25.2958 15.433,25.2298 15.424,25.1628 C15.325,25.8958 14.704,26.4618 13.944,26.4618 C13.185,26.4618 12.564,25.8958 12.465,25.1628 C12.456,25.2298 12.444,25.2958 12.444,25.3648 C12.444,30.3608 22.86,32.9748 33.148,32.9748 C43.437,32.9748 53.853,30.3608 53.853,25.3648 C53.853,25.2958 53.842,25.2298 53.833,25.1628 C53.733,25.8958 53.113,26.4618 52.353,26.4618" id="Fill-63" fill="#00C9FF"></path>
                            <path d="M13.9443,26.4618 C14.7043,26.4618 15.3243,25.8958 15.4243,25.1628 C15.3243,24.4308 14.7043,23.8648 13.9443,23.8648 C13.1843,23.8648 12.5643,24.4308 12.4643,25.1628 C12.5643,25.8958 13.1843,26.4618 13.9443,26.4618" id="Fill-65" fill="#00C9FF"></path>
                            <path d="M52.353,23.8646 C51.593,23.8646 50.973,24.4306 50.873,25.1636 C50.973,25.8956 51.593,26.4616 52.353,26.4616 C53.113,26.4616 53.733,25.8956 53.833,25.1636 C53.733,24.4306 53.113,23.8646 52.353,23.8646" id="Fill-67" fill="#00C9FF"></path>
                        </g>
                    </g>
                </g>
            </g>
        </g>
    </g>
</svg>