<?xml version="1.0" encoding="UTF-8"?>
<svg width="127px" height="127px" viewBox="0 0 127 127" version="1.1" xmlns="http://www.w3.org/2000/svg" xmlns:xlink="http://www.w3.org/1999/xlink">
    <!-- Generator: Sketch 47.1 (45422) - http://www.bohemiancoding.com/sketch -->
    <title>Icon - Data</title>
    <desc>Created with Sketch.</desc>
    <defs>
        <polygon id="path-1" points="55.8725 0.784 0.1305 0.784 0.1305 21.0067 55.8725 21.0067 55.8725 0.784"></polygon>
        <polygon id="path-3" points="3 11.9499 3 0.2969 0.0005 0.2969 0.0005 11.9499 3 11.9499"></polygon>
        <polygon id="path-5" points="0 0.2925 0 11.9505 2.9998 11.9505 2.9998 0.2925"></polygon>
        <polygon id="path-7" points="56 11.9472 56 23 0 23 0 11.9472 0 0.8944 56 0.8944"></polygon>
        <polygon id="path-9" points="3 11.9499 3 0.9499 0.0002 0.9499 0.0002 11.9499 3 11.9499"></polygon>
        <polygon id="path-11" points="0 0.8938 0 3.2058 0.9999 3.2058 0.9999 0.8938 0 0.8938"></polygon>
    </defs>
    <g id="Page-1" stroke="none" stroke-width="1" fill="none" fill-rule="evenodd">
        <g id="Homepage---New" transform="translate(-252.000000, -2577.000000)">
            <g id="Section---Callouts" transform="translate(0.000000, 2478.000000)">
                <g id="Content---Humanizing-Data" transform="translate(150.000000, 100.000000)">
                    <g id="Icon---Data" transform="translate(103.000000, 0.000000)">
                        <circle id="Oval-4" stroke="#EDF1F2" stroke-width="2" fill="#FFFFFF" cx="62.5" cy="62.5" r="62.5"></circle>
                        <g transform="translate(34.000000, 34.000000)">
                            <g id="Group-3" transform="translate(0.000000, 0.216300)">
                                <mask id="mask-2" fill="white">
                                    <use xlink:href="#path-1"></use>
                                </mask>
                                <g id="Clip-2"></g>
                                <path d="M28.0015,3.7837 C43.4105,3.7837 52.8725,7.9257 52.8725,10.8947 C52.8725,13.8647 43.4105,18.0067 28.0015,18.0067 C12.5925,18.0067 3.1305,13.8647 3.1305,10.8947 C3.1305,7.9257 12.5925,3.7837 28.0015,3.7837 M1.5005,10.4507 C2.3285,10.4507 3.0005,11.1217 3.0005,11.9507 L3.0005,15.5567 C7.8605,19.1217 18.1535,21.0067 28.0015,21.0067 C37.8485,21.0067 48.1385,19.1217 53.0005,15.5587 L53.0005,11.9507 C53.0005,11.1217 53.6715,10.4507 54.5005,10.4507 C55.0935,10.4507 55.6015,10.7977 55.8445,11.2967 C55.8565,11.1637 55.8725,11.0307 55.8725,10.8947 C55.8725,4.3277 41.5125,0.7837 28.0015,0.7837 C14.4905,0.7837 0.1305,4.3277 0.1305,10.8947 C0.1305,11.0297 0.1455,11.1607 0.1575,11.2927 C0.4015,10.7957 0.9085,10.4507 1.5005,10.4507" id="Fill-1" fill="#00C9FF" mask="url(#mask-2)"></path>
                            </g>
                            <g id="Group-6" transform="translate(53.000000, 11.216300)">
                                <mask id="mask-4" fill="white">
                                    <use xlink:href="#path-3"></use>
                                </mask>
                                <g id="Clip-5"></g>
                                <path d="M2.8445,0.2969 C2.6975,1.9109 1.6715,3.3339 0.0005,4.5589 L0.0005,11.7829 C0.0545,11.3369 0.2965,10.9509 0.6505,10.7149 C0.8925,10.5489 1.1845,10.4499 1.5005,10.4499 C2.3285,10.4499 3.0005,11.1219 3.0005,11.9499 L3.0005,0.9499 C3.0005,0.7149 2.9415,0.4949 2.8445,0.2969" id="Fill-4" fill="#00C9FF" mask="url(#mask-4)"></path>
                            </g>
                            <path d="M54.5,10.6665 C53.671,10.6665 53,11.3375 53,12.1665 L53,15.7755 C54.671,14.5505 55.697,13.1275 55.844,11.5135 C55.601,11.0135 55.093,10.6665 54.5,10.6665" id="Fill-7" fill="#00C9FF"></path>
                            <path d="M0,23.0278 L0,23.1668 C0,23.1478 0.005,23.1298 0.006,23.1108 C0.005,23.0828 0,23.0558 0,23.0278" id="Fill-9" fill="#00C9FF"></path>
                            <g id="Group-13" transform="translate(0.000000, 11.216300)">
                                <mask id="mask-6" fill="white">
                                    <use xlink:href="#path-5"></use>
                                </mask>
                                <g id="Clip-12"></g>
                                <path d="M1.4908,10.3115 C2.2518,10.3115 2.8718,10.8865 2.9628,11.6275 C2.9858,11.7315 2.9998,11.8395 2.9998,11.9505 L2.9998,4.5575 C1.3288,3.3315 0.3038,1.9075 0.1578,0.2925 C0.0598,0.4925 -0.0002,0.7135 -0.0002,0.9505 L-0.0002,11.8115 C-0.0002,10.9825 0.6668,10.3115 1.4908,10.3115" id="Fill-11" fill="#00C9FF" mask="url(#mask-6)"></path>
                            </g>
                            <path d="M3,15.7735 L3,12.1665 C3,11.3375 2.329,10.6665 1.5,10.6665 C0.908,10.6665 0.402,11.0115 0.158,11.5095 C0.304,13.1235 1.329,14.5485 3,15.7735" id="Fill-14" fill="#00C9FF"></path>
                            <g id="Group-18" transform="translate(0.000000, 34.216300)">
                                <mask id="mask-8" fill="white">
                                    <use xlink:href="#path-7"></use>
                                </mask>
                                <g id="Clip-17"></g>
                                <path d="M53,5.7524 L53,12.9654 C53,15.9024 43.489,20.0004 28,20.0004 C12.739,20.0004 3,15.7424 3,12.8114 L3,5.5974 C1.139,4.2634 0.039,2.6924 0.006,0.8944 C0.005,0.9134 0,0.9314 0,0.9504 L0,12.8114 C0,19.4294 14.426,23.0004 28,23.0004 C41.914,23.0004 56,19.5534 56,12.9654 L56,0.9654 C56,2.8094 54.895,4.4074 53,5.7524" id="Fill-16" fill="#00C9FF" mask="url(#mask-8)"></path>
                            </g>
                            <path d="M1.5,33.6665 C2.329,33.6665 3,34.3375 3,35.1665 L3,39.8135 C7.931,43.3485 18.187,45.2165 28,45.2165 C38.019,45.2165 48.126,43.4285 53,39.9685 L53,35.1815 C53,38.1195 43.489,42.2165 28,42.2165 C12.739,42.2165 3,37.9585 3,35.0275 L3,27.8155 C1.985,27.0875 1.196,26.2895 0.683,25.4225 C0.272,25.1545 0,24.6935 0,24.1665 L0,35.0275 C0,35.0555 0.005,35.0825 0.006,35.1105 C0.036,34.3085 0.691,33.6665 1.5,33.6665" id="Fill-19" fill="#FF4F00"></path>
                            <g id="Group-23" transform="translate(53.000000, 23.216300)">
                                <mask id="mask-10" fill="white">
                                    <use xlink:href="#path-9"></use>
                                </mask>
                                <g id="Clip-22"></g>
                                <path d="M2.2672,2.2329 C1.7752,3.0579 1.0272,3.8609 0.0002,4.6209 L0.0002,11.9499 C0.0002,11.1219 0.6712,10.4499 1.5002,10.4499 C2.3282,10.4499 3.0002,11.1219 3.0002,11.9499 L3.0002,0.9499 C3.0002,1.4969 2.7042,1.9709 2.2672,2.2329" id="Fill-21" fill="#FF4F00" mask="url(#mask-10)"></path>
                            </g>
                            <path d="M54.5,21.6665 C54.184,21.6665 53.892,21.7645 53.651,21.9315 C53.886,21.7745 54.169,21.6815 54.473,21.6815 C55.296,21.6815 55.963,22.3535 55.963,23.1815 C55.963,23.9425 55.712,24.7035 55.267,25.4495 C55.704,25.1875 56,24.7135 56,24.1665 L56,23.1665 C56,22.3375 55.329,21.6665 54.5,21.6665" id="Fill-24" fill="#003A00"></path>
                            <path d="M3,23.2075 L3,23.1665 C3,23.0555 2.986,22.9485 2.963,22.8435 C2.971,22.9045 2.982,22.9645 2.982,23.0275 C2.982,23.0865 2.992,23.1475 3,23.2075" id="Fill-26" fill="#FF4F00"></path>
                            <g id="Group-30" transform="translate(0.000000, 22.216300)">
                                <mask id="mask-12" fill="white">
                                    <use xlink:href="#path-11"></use>
                                </mask>
                                <g id="Clip-29"></g>
                                <path d="M0.6829,3.2058 C0.2549,2.4828 0.0209,1.7118 0.0059,0.8938 C0.0049,0.9128 -0.0001,0.9308 -0.0001,0.9498 L-0.0001,1.9498 C-0.0001,2.4768 0.2729,2.9378 0.6829,3.2058" id="Fill-28" fill="#FF4F00" mask="url(#mask-12)"></path>
                            </g>
                            <path d="M3,39.8139 L3,35.1669 C3,34.3379 2.329,33.6669 1.5,33.6669 C0.691,33.6669 0.036,34.3089 0.006,35.1109 C0.039,36.9089 1.139,38.4799 3,39.8139" id="Fill-31" fill="#003A00"></path>
                            <path d="M54.5,33.6665 C53.671,33.6665 53,34.3375 53,35.1665 L53,35.1815 L53,39.9685 C54.895,38.6235 56,37.0255 56,35.1815 L56,35.1665 C56,34.3375 55.329,33.6665 54.5,33.6665" id="Fill-33" fill="#003A00"></path>
                            <path d="M27.9814,30.2163 C13.0284,30.2163 3.3834,26.1293 3.0004,23.2073 L3.0004,24.1663 L3.0004,27.8153 C7.9284,31.3493 18.1754,33.2163 27.9814,33.2163 C40.4474,33.2163 48.8674,30.8893 53.0004,27.8363 L53.0004,24.1663 L53.0004,23.1663 L53.0004,22.9983 C52.9924,23.0593 52.9814,23.1193 52.9814,23.1813 C52.9814,26.0493 43.2424,30.2163 27.9814,30.2163" id="Fill-35" fill="#FF4F00"></path>
                            <path d="M53.6507,21.9313 C53.2957,22.1673 53.0547,22.5533 52.9997,22.9993 L52.9997,23.1663 C52.9997,22.6533 53.2577,22.2013 53.6507,21.9313" id="Fill-37" fill="#FF4F00"></path>
                            <path d="M1.5,21.6665 C2.218,21.6665 2.815,22.1705 2.963,22.8435 C2.872,22.1035 2.252,21.5275 1.491,21.5275 C0.667,21.5275 0,22.1995 0,23.0275 C0,23.0555 0.005,23.0825 0.006,23.1105 C0.036,22.3085 0.691,21.6665 1.5,21.6665" id="Fill-39" fill="#003A00"></path>
                            <path d="M53,24.1665 L53,27.8365 C54.028,27.0775 54.775,26.2735 55.267,25.4495 C55.042,25.5845 54.782,25.6665 54.5,25.6665 C53.671,25.6665 53,24.9955 53,24.1665" id="Fill-41" fill="#003A00"></path>
                            <path d="M1.5,25.6665 C1.198,25.6665 0.918,25.5755 0.683,25.4225 C1.196,26.2895 1.985,27.0875 3,27.8155 L3,24.1665 C3,24.9955 2.329,25.6665 1.5,25.6665" id="Fill-43" fill="#003A00"></path>
                            <path d="M53,23.1665 L53,24.1665 C53,24.9955 53.671,25.6665 54.5,25.6665 C54.782,25.6665 55.042,25.5845 55.267,25.4495 C55.712,24.7035 55.963,23.9425 55.963,23.1815 C55.963,22.3535 55.296,21.6815 54.473,21.6815 C54.169,21.6815 53.886,21.7745 53.651,21.9315 C53.258,22.2015 53,22.6535 53,23.1665" id="Fill-45" fill="#003A00"></path>
                            <path d="M3,24.1665 L3,23.2075 C2.992,23.1475 2.982,23.0865 2.982,23.0275 C2.982,22.9645 2.971,22.9045 2.963,22.8435 C2.815,22.1705 2.218,21.6665 1.5,21.6665 C0.691,21.6665 0.036,22.3085 0.006,23.1105 C0.021,23.9285 0.255,24.6995 0.683,25.4225 C0.918,25.5755 1.198,25.6665 1.5,25.6665 C2.329,25.6665 3,24.9955 3,24.1665" id="Fill-47" fill="#003A00"></path>
                        </g>
                    </g>
                </g>
            </g>
        </g>
    </g>
</svg>